<?xml version="1.0" standalone="no"?>
<!DOCTYPE svg PUBLIC "-//W3C//DTD SVG 20010904//EN"
 "http://www.w3.org/TR/2001/REC-SVG-20010904/DTD/svg10.dtd">
<svg version="1.0" xmlns="http://www.w3.org/2000/svg"
 width="230.000000pt" height="230.000000pt" viewBox="0 0 230.000000 230.000000"
 preserveAspectRatio="xMidYMid meet">
<metadata>
Created by potrace 1.10, written by Peter Selinger 2001-2011
</metadata>
<g transform="translate(0.000000,230.000000) scale(0.100000,-0.100000)"
fill="#000000" stroke="none">
<path d="M1005 1651 c-235 -28 -491 -116 -671 -233 -38 -24 -74 -47 -80 -51
-7 -4 -29 7 -49 23 -21 17 -42 30 -46 30 -17 0 -9 -29 16 -58 l25 -30 -47 -42
-48 -41 40 5 c22 3 56 8 76 12 34 6 38 3 85 -52 27 -31 105 -109 174 -172 218
-200 408 -329 563 -383 76 -27 93 -29 233 -29 201 0 261 19 484 154 l85 51
172 0 c94 0 174 3 178 7 8 8 -18 60 -41 79 -9 7 -43 52 -74 100 -82 121 -168
226 -274 332 -159 160 -296 248 -436 281 -80 19 -271 27 -365 17z m-15 -162
c-80 -28 -152 -89 -192 -163 l-16 -31 -11 25 c-10 22 -11 19 -7 -22 12 -146
182 -318 376 -379 92 -30 206 -29 284 1 71 27 142 90 168 148 19 43 32 52 42
30 4 -7 4 8 1 35 -2 26 -14 65 -25 87 -27 52 -25 58 6 29 40 -36 174 -198 174
-210 0 -5 -8 -12 -17 -16 -10 -3 -76 -39 -148 -79 -360 -202 -584 -189 -946
55 -101 68 -349 275 -356 297 -4 12 193 93 352 144 128 41 256 69 320 69 l50
0 -55 -20z m309 -75 c34 -15 73 -40 86 -55 50 -60 56 -140 14 -193 -20 -26
-117 -82 -125 -73 -3 2 7 28 21 58 47 101 28 156 -68 199 -56 26 -167 26 -222
1 -38 -17 -105 -81 -105 -101 0 -5 -5 -21 -11 -37 -14 -39 -29 -13 -29 53 0
81 44 131 149 171 61 23 216 11 290 -23z m-169 -108 c0 -3 -11 -26 -25 -52
-62 -117 -4 -199 156 -219 33 -4 72 -2 98 5 54 14 126 80 142 128 17 52 21 58
30 36 12 -29 10 -103 -2 -127 -41 -79 -125 -117 -258 -117 -114 0 -181 20
-236 71 -91 84 -84 176 18 250 34 25 77 39 77 25z m132 -41 c16 -36 -4 -97
-44 -130 -36 -31 -57 -29 -77 6 -18 33 -9 69 30 114 38 43 74 47 91 10z"/>
</g>
</svg>
